<svg width="15" height="15" viewBox="0 0 15 15" fill="none" xmlns="http://www.w3.org/2000/svg">
<g id="stairs-with-handrail 1" clip-path="url(#clip0_176_80)">
<g id="Group">
<g id="Group_2">
<g id="Group_3">
<path id="Vector" d="M14.2378 2.95728H11.4977C11.0766 2.95728 10.7354 3.29822 10.7354 3.71936V5.69767H8.75717C8.33603 5.69767 7.99484 6.03849 7.99484 6.45966V8.43809H6.01653C5.59539 8.43809 5.25432 8.77941 5.25432 9.20012V11.2738H3.18106C2.97876 11.2738 2.7849 11.354 2.64203 11.4968C2.49903 11.6396 2.41882 11.8344 2.41882 12.0359L2.41907 13.6303C2.41907 14.0519 2.76038 14.3928 3.18128 14.3928H14.2378C14.659 14.3928 15 14.0519 15 13.6303V3.71933C15.0001 3.29822 14.659 2.95728 14.2378 2.95728Z" fill="black"/>
<path id="Vector_2" d="M10.2266 0.760775C10.0304 0.559679 9.70912 0.555815 9.50814 0.751469C6.24859 3.9267 3.14766 7.02801 0.148905 10.0265C0.0534895 10.1219 0 10.2515 0 10.386V13.8635C0 14.1437 0.227408 14.3717 0.508119 14.3717C0.788553 14.3717 1.01636 14.1438 1.01636 13.8635V10.5963C3.96645 7.64611 7.01643 4.5977 10.2171 1.47927C10.418 1.28364 10.4221 0.961747 10.2266 0.760775Z" fill="black"/>
</g>
</g>
</g>
</g>
<defs>
<clipPath id="clip0_176_80">
<rect width="15" height="15" fill="white"/>
</clipPath>
</defs>
</svg>
